<svg xmlns="http://www.w3.org/2000/svg" width="460" height="300" viewBox="0 0 460 300"><rect width="460" height="300" fill="#06285a"/><text x="8" y="16" fill="#d8e8ff" font-family="ui-monospace,monospace" font-size="9">NEARBY PARKING</text><rect x="8" y="24" width="280" height="264" rx="0" fill="#082e64" stroke="#6ea6ee"/><rect x="18" y="35" width="66" height="63" rx="2" fill="#103b70" stroke="#315889"/><rect x="104" y="35" width="73" height="63" rx="2" fill="#103b70" stroke="#315889"/><rect x="197" y="35" width="80" height="63" rx="2" fill="#103b70" stroke="#315889"/><rect x="18" y="119" width="66" height="69" rx="2" fill="#103b70" stroke="#315889"/><rect x="104" y="119" width="73" height="69" rx="2" fill="#103b70" stroke="#315889"/><rect x="197" y="119" width="80" height="69" rx="2" fill="#103b70" stroke="#315889"/><rect x="18" y="210" width="66" height="64" rx="2" fill="#103b70" stroke="#315889"/><rect x="104" y="210" width="73" height="64" rx="2" fill="#103b70" stroke="#315889"/><rect x="197" y="210" width="80" height="64" rx="2" fill="#103b70" stroke="#315889"/><path d="M43 247h51V109h92V64h39" fill="none" stroke="#a9d3ff" stroke-width="3" stroke-dasharray="5 5"/><path d="M226 85c-6-9-14-15-14-25a14 14 0 0 1 28 0c0 10-8 16-14 25Z" fill="#4fd0e8" stroke="#d8e8ff"/><text x="222" y="64" fill="#06285a" font-family="ui-monospace,monospace" font-size="12">P</text><path d="M57 179c-6-9-14-15-14-25a14 14 0 0 1 28 0c0 10-8 16-14 25Z" fill="#a9d3ff" stroke="#d8e8ff"/><text x="53" y="158" fill="#06285a" font-family="ui-monospace,monospace" font-size="12">P</text><path d="M228 248c-6-9-14-15-14-25a14 14 0 0 1 28 0c0 10-8 16-14 25Z" fill="#8fb0ff" stroke="#d8e8ff"/><text x="224" y="227" fill="#06285a" font-family="ui-monospace,monospace" font-size="12">P</text><circle cx="44" cy="247" r="6" fill="#fff"/><text x="310" y="16" fill="#d8e8ff" font-family="ui-monospace,monospace" font-size="9">SHARE A SPOT</text><rect x="307" y="24" width="145" height="264" rx="14" fill="#041f48" stroke="#a9d3ff"/><path d="M350 35L409 35" fill="none" stroke="#6ea6ee"/><rect x="318" y="49" width="123" height="142" rx="4" fill="#123f76" stroke="#6ea6ee"/><path d="M319 79L440 79" fill="none" stroke="#6ea6ee"/><path d="M319 123L440 123" fill="none" stroke="#6ea6ee"/><path d="M319 163L440 163" fill="none" stroke="#6ea6ee"/><path d="M352 50L352 190" fill="none" stroke="#6ea6ee"/><path d="M398 50L398 190" fill="none" stroke="#6ea6ee"/><path d="M379 136c-6-9-14-15-14-25a14 14 0 0 1 28 0c0 10-8 16-14 25Z" fill="#4fd0e8" stroke="#d8e8ff"/><text x="375" y="115" fill="#06285a" font-family="ui-monospace,monospace" font-size="12">P</text><text x="324" y="211" fill="#d8e8ff" font-family="ui-monospace,monospace" font-size="8">OPEN SPOT NEARBY</text><rect x="319" y="228" width="121" height="30" rx="3" fill="#174d8c" stroke="#a9d3ff"/><text x="335" y="247" fill="#d8e8ff" font-family="ui-monospace,monospace" font-size="9">ALERT DRIVERS</text><path d="M358 276L401 276" fill="none" stroke="#6ea6ee"/></svg>
