<svg xmlns="http://www.w3.org/2000/svg" width="460" height="300" viewBox="0 0 460 300"><rect width="460" height="300" fill="#06285a"/><text x="8" y="16" fill="#d8e8ff" font-family="ui-monospace,monospace" font-size="9">MENTOR MATCHING</text><rect x="8" y="24" width="220" height="264" rx="0" fill="#082e64" stroke="#6ea6ee"/><circle cx="54" cy="61" r="17" fill="#174d8c"/><circle cx="54" cy="57" r="5" fill="#a9d3ff"/><path d="M43 71q11-16 22 0" fill="none" stroke="#a9d3ff" stroke-width="2"/><text x="84" y="59" fill="#d8e8ff" font-family="ui-monospace,monospace" font-size="9">STUDENT</text><path d="M84 71L199 71" fill="none" stroke="#6ea6ee"/><path d="M84 80L162 80" fill="none" stroke="#6ea6ee"/><circle cx="54" cy="177" r="17" fill="#174d8c"/><circle cx="54" cy="173" r="5" fill="#a9d3ff"/><path d="M43 187q11-16 22 0" fill="none" stroke="#a9d3ff" stroke-width="2"/><text x="84" y="175" fill="#d8e8ff" font-family="ui-monospace,monospace" font-size="9">MENTOR</text><path d="M84 187L199 187" fill="none" stroke="#6ea6ee"/><path d="M84 196L162 196" fill="none" stroke="#6ea6ee"/><path d="M54 89v32h99v34m-6-7 6 7 6-7" fill="none" stroke="#4fd0e8" stroke-width="2"/><text x="83" y="113" fill="#d8e8ff" font-family="ui-monospace,monospace" font-size="8">SHARED GOALS</text><rect x="23" y="232" width="190" height="37" rx="0" fill="#123f76" stroke="#6ea6ee"/><text x="42" y="255" fill="#d8e8ff" font-family="ui-monospace,monospace" font-size="11">LEARN TOGETHER</text><text x="244" y="16" fill="#d8e8ff" font-family="ui-monospace,monospace" font-size="9">GUIDED PATHWAY</text><rect x="240" y="24" width="212" height="264" rx="0" fill="#082e64" stroke="#6ea6ee"/><path d="M260 68L260 103" fill="none" stroke="#6ea6ee"/><circle cx="260" cy="56" r="10" fill="#4fd0e8"/><text x="257" y="59" fill="#06285a" font-family="ui-monospace,monospace" font-size="9">1</text><text x="279" y="59" fill="#d8e8ff" font-family="ui-monospace,monospace" font-size="9">Set a goal</text><path d="M279 71L433 71" fill="none" stroke="#6ea6ee"/><path d="M279 80L404 80" fill="none" stroke="#6ea6ee"/><path d="M260 125L260 160" fill="none" stroke="#6ea6ee"/><circle cx="260" cy="113" r="10" fill="#2f6fc4"/><text x="257" y="116" fill="#fff" font-family="ui-monospace,monospace" font-size="9">2</text><text x="279" y="116" fill="#d8e8ff" font-family="ui-monospace,monospace" font-size="9">Find a mentor</text><path d="M279 128L433 128" fill="none" stroke="#6ea6ee"/><path d="M279 137L404 137" fill="none" stroke="#6ea6ee"/><path d="M260 182L260 217" fill="none" stroke="#6ea6ee"/><circle cx="260" cy="170" r="10" fill="#2f6fc4"/><text x="257" y="173" fill="#fff" font-family="ui-monospace,monospace" font-size="9">3</text><text x="279" y="173" fill="#d8e8ff" font-family="ui-monospace,monospace" font-size="9">Build a project</text><path d="M279 185L433 185" fill="none" stroke="#6ea6ee"/><path d="M279 194L404 194" fill="none" stroke="#6ea6ee"/><circle cx="260" cy="227" r="10" fill="#2f6fc4"/><text x="257" y="230" fill="#fff" font-family="ui-monospace,monospace" font-size="9">4</text><text x="279" y="230" fill="#d8e8ff" font-family="ui-monospace,monospace" font-size="9">Review progress</text><path d="M279 242L433 242" fill="none" stroke="#6ea6ee"/><path d="M279 251L404 251" fill="none" stroke="#6ea6ee"/></svg>
