<svg xmlns="http://www.w3.org/2000/svg" width="940" height="780" viewBox="-20 0 940 780">
<defs><pattern id="grain" width="26" height="14" patternUnits="userSpaceOnUse" patternTransform="rotate(-8)"><path d="M0 3q6.5-3 13 0t13 0M0 8q6.5 3 13 0t13 0M0 12.5q6.5-2 13 0t13 0" fill="none" stroke="#a9d3ff" stroke-width=".7" opacity=".55"/></pattern><marker id="ah" viewBox="0 0 10 10" refX="8" refY="5" markerWidth="7" markerHeight="7" orient="auto-start-reverse"><path d="M1 1 9 5 1 9" fill="none" stroke="#a9d3ff" stroke-width="1.3"/></marker></defs>
<g stroke-linejoin="round"><polygon points="410.0,267.2 491.4,321.7 410.0,376.2 328.6,321.7" fill="#0b3373" stroke="#cfe6ff" stroke-width="0.7" stroke-linejoin="round"></polygon><polygon points="328.6,406.3 410.0,460.8 410.0,376.2 328.6,321.7" fill="#092b5e" stroke="#cfe6ff" stroke-width="0.7" stroke-linejoin="round"></polygon><polygon points="491.4,406.3 410.0,460.8 410.0,376.2 491.4,321.7" fill="#07234f" stroke="#cfe6ff" stroke-width="0.7" stroke-linejoin="round"></polygon><polygon points="323.4,325.2 404.8,379.7 323.4,434.2 242.0,379.7" fill="#0b3373" stroke="#cfe6ff" stroke-width="0.7" stroke-linejoin="round"></polygon><polygon points="242.0,464.3 323.4,518.8 323.4,434.2 242.0,379.7" fill="#092b5e" stroke="#cfe6ff" stroke-width="0.7" stroke-linejoin="round"></polygon><polygon points="404.8,464.3 323.4,518.8 323.4,434.2 404.8,379.7" fill="#07234f" stroke="#cfe6ff" stroke-width="0.7" stroke-linejoin="round"></polygon><polygon points="496.6,325.2 578.0,379.7 496.6,434.2 415.2,379.7" fill="#0b3373" stroke="#cfe6ff" stroke-width="0.7" stroke-linejoin="round"></polygon><polygon points="415.2,464.3 496.6,518.8 496.6,434.2 415.2,379.7" fill="#092b5e" stroke="#cfe6ff" stroke-width="0.7" stroke-linejoin="round"></polygon><polygon points="578.0,464.3 496.6,518.8 496.6,434.2 578.0,379.7" fill="#07234f" stroke="#cfe6ff" stroke-width="0.7" stroke-linejoin="round"></polygon><polygon points="236.8,383.2 318.2,437.7 236.8,492.2 155.4,437.7" fill="#0b3373" stroke="#cfe6ff" stroke-width="0.7" stroke-linejoin="round"></polygon><polygon points="155.4,522.3 236.8,576.8 236.8,492.2 155.4,437.7" fill="#092b5e" stroke="#cfe6ff" stroke-width="0.7" stroke-linejoin="round"></polygon><polygon points="318.2,522.3 236.8,576.8 236.8,492.2 318.2,437.7" fill="#07234f" stroke="#cfe6ff" stroke-width="0.7" stroke-linejoin="round"></polygon><polygon points="160.3,520.5 231.9,568.5 231.9,494.0 160.3,446.0" fill="#2f6fc4" stroke="#06285a" stroke-width="0.5" stroke-linejoin="round" opacity="0.88"></polygon><polygon points="410.0,383.2 491.4,437.7 410.0,492.2 328.6,437.7" fill="#0b3373" stroke="#cfe6ff" stroke-width="0.7" stroke-linejoin="round"></polygon><polygon points="328.6,522.3 410.0,576.8 410.0,492.2 328.6,437.7" fill="#092b5e" stroke="#cfe6ff" stroke-width="0.7" stroke-linejoin="round"></polygon><polygon points="491.4,522.3 410.0,576.8 410.0,492.2 491.4,437.7" fill="#07234f" stroke="#cfe6ff" stroke-width="0.7" stroke-linejoin="round"></polygon><polygon points="583.2,383.2 664.6,437.7 583.2,492.2 501.8,437.7" fill="#0b3373" stroke="#cfe6ff" stroke-width="0.7" stroke-linejoin="round"></polygon><polygon points="501.8,522.3 583.2,576.8 583.2,492.2 501.8,437.7" fill="#092b5e" stroke="#cfe6ff" stroke-width="0.7" stroke-linejoin="round"></polygon><polygon points="664.6,522.3 583.2,576.8 583.2,492.2 664.6,437.7" fill="#07234f" stroke="#cfe6ff" stroke-width="0.7" stroke-linejoin="round"></polygon><polygon points="659.7,520.5 588.1,568.5 588.1,494.0 659.7,446.0" fill="#2f6fc4" stroke="#06285a" stroke-width="0.5" stroke-linejoin="round" opacity="0.8"></polygon><polygon points="323.4,441.2 404.8,495.7 323.4,550.2 242.0,495.7" fill="#0b3373" stroke="#cfe6ff" stroke-width="0.7" stroke-linejoin="round"></polygon><polygon points="242.0,580.3 323.4,634.8 323.4,550.2 242.0,495.7" fill="#092b5e" stroke="#cfe6ff" stroke-width="0.7" stroke-linejoin="round"></polygon><polygon points="404.8,580.3 323.4,634.8 323.4,550.2 404.8,495.7" fill="#07234f" stroke="#cfe6ff" stroke-width="0.7" stroke-linejoin="round"></polygon><polygon points="246.9,578.5 318.5,626.5 318.5,552.0 246.9,504.0" fill="#5aa2f0" stroke="#06285a" stroke-width="0.5" stroke-linejoin="round" opacity="0.88"></polygon><polygon points="496.6,441.2 578.0,495.7 496.6,550.2 415.2,495.7" fill="#0b3373" stroke="#cfe6ff" stroke-width="0.7" stroke-linejoin="round"></polygon><polygon points="415.2,580.3 496.6,634.8 496.6,550.2 415.2,495.7" fill="#092b5e" stroke="#cfe6ff" stroke-width="0.7" stroke-linejoin="round"></polygon><polygon points="578.0,580.3 496.6,634.8 496.6,550.2 578.0,495.7" fill="#07234f" stroke="#cfe6ff" stroke-width="0.7" stroke-linejoin="round"></polygon><polygon points="573.1,578.5 501.5,626.5 501.5,552.0 573.1,504.0" fill="#2f6fc4" stroke="#06285a" stroke-width="0.5" stroke-linejoin="round" opacity="0.8"></polygon><polygon points="410.0,499.2 491.4,553.7 410.0,608.2 328.6,553.7" fill="#0b3373" stroke="#cfe6ff" stroke-width="0.7" stroke-linejoin="round"></polygon><polygon points="328.6,638.3 410.0,692.8 410.0,608.2 328.6,553.7" fill="#092b5e" stroke="#cfe6ff" stroke-width="0.7" stroke-linejoin="round"></polygon><polygon points="491.4,638.3 410.0,692.8 410.0,608.2 491.4,553.7" fill="#07234f" stroke="#cfe6ff" stroke-width="0.7" stroke-linejoin="round"></polygon><polygon points="333.5,636.5 405.1,684.5 405.1,610.0 333.5,562.0" fill="#5aa2f0" stroke="#06285a" stroke-width="0.5" stroke-linejoin="round" opacity="0.88"></polygon><polygon points="486.5,636.5 414.9,684.5 414.9,610.0 486.5,562.0" fill="#8fb0ff" stroke="#06285a" stroke-width="0.5" stroke-linejoin="round" opacity="0.8"></polygon><polygon points="410.0,177.2 491.4,231.7 410.0,286.2 328.6,231.7" fill="#0b3373" stroke="#cfe6ff" stroke-width="0.7" stroke-linejoin="round"></polygon><polygon points="328.6,316.3 410.0,370.8 410.0,286.2 328.6,231.7" fill="#092b5e" stroke="#cfe6ff" stroke-width="0.7" stroke-linejoin="round"></polygon><polygon points="491.4,316.3 410.0,370.8 410.0,286.2 491.4,231.7" fill="#07234f" stroke="#cfe6ff" stroke-width="0.7" stroke-linejoin="round"></polygon><polygon points="323.4,235.2 404.8,289.7 323.4,344.2 242.0,289.7" fill="#0b3373" stroke="#cfe6ff" stroke-width="0.7" stroke-linejoin="round"></polygon><polygon points="242.0,374.3 323.4,428.8 323.4,344.2 242.0,289.7" fill="#092b5e" stroke="#cfe6ff" stroke-width="0.7" stroke-linejoin="round"></polygon><polygon points="404.8,374.3 323.4,428.8 323.4,344.2 404.8,289.7" fill="#07234f" stroke="#cfe6ff" stroke-width="0.7" stroke-linejoin="round"></polygon><polygon points="496.6,235.2 578.0,289.7 496.6,344.2 415.2,289.7" fill="#0b3373" stroke="#cfe6ff" stroke-width="0.7" stroke-linejoin="round"></polygon><polygon points="415.2,374.3 496.6,428.8 496.6,344.2 415.2,289.7" fill="#092b5e" stroke="#cfe6ff" stroke-width="0.7" stroke-linejoin="round"></polygon><polygon points="578.0,374.3 496.6,428.8 496.6,344.2 578.0,289.7" fill="#07234f" stroke="#cfe6ff" stroke-width="0.7" stroke-linejoin="round"></polygon><polygon points="236.8,293.2 318.2,347.7 236.8,402.2 155.4,347.7" fill="#0b3373" stroke="#cfe6ff" stroke-width="0.7" stroke-linejoin="round"></polygon><polygon points="155.4,432.3 236.8,486.8 236.8,402.2 155.4,347.7" fill="#092b5e" stroke="#cfe6ff" stroke-width="0.7" stroke-linejoin="round"></polygon><polygon points="318.2,432.3 236.8,486.8 236.8,402.2 318.2,347.7" fill="#07234f" stroke="#cfe6ff" stroke-width="0.7" stroke-linejoin="round"></polygon><polygon points="160.3,430.5 231.9,478.5 231.9,404.0 160.3,356.0" fill="#5aa2f0" stroke="#06285a" stroke-width="0.5" stroke-linejoin="round" opacity="0.88"></polygon><polygon points="410.0,293.2 491.4,347.7 410.0,402.2 328.6,347.7" fill="#0b3373" stroke="#cfe6ff" stroke-width="0.7" stroke-linejoin="round"></polygon><polygon points="328.6,432.3 410.0,486.8 410.0,402.2 328.6,347.7" fill="#092b5e" stroke="#cfe6ff" stroke-width="0.7" stroke-linejoin="round"></polygon><polygon points="491.4,432.3 410.0,486.8 410.0,402.2 491.4,347.7" fill="#07234f" stroke="#cfe6ff" stroke-width="0.7" stroke-linejoin="round"></polygon><polygon points="583.2,293.2 664.6,347.7 583.2,402.2 501.8,347.7" fill="#0b3373" stroke="#cfe6ff" stroke-width="0.7" stroke-linejoin="round"></polygon><polygon points="501.8,432.3 583.2,486.8 583.2,402.2 501.8,347.7" fill="#092b5e" stroke="#cfe6ff" stroke-width="0.7" stroke-linejoin="round"></polygon><polygon points="664.6,432.3 583.2,486.8 583.2,402.2 664.6,347.7" fill="#07234f" stroke="#cfe6ff" stroke-width="0.7" stroke-linejoin="round"></polygon><polygon points="659.7,430.5 588.1,478.5 588.1,404.0 659.7,356.0" fill="#8fb0ff" stroke="#06285a" stroke-width="0.5" stroke-linejoin="round" opacity="0.8"></polygon><polygon points="323.4,351.2 404.8,405.7 323.4,460.2 242.0,405.7" fill="#0b3373" stroke="#cfe6ff" stroke-width="0.7" stroke-linejoin="round"></polygon><polygon points="242.0,490.3 323.4,544.8 323.4,460.2 242.0,405.7" fill="#092b5e" stroke="#cfe6ff" stroke-width="0.7" stroke-linejoin="round"></polygon><polygon points="404.8,490.3 323.4,544.8 323.4,460.2 404.8,405.7" fill="#07234f" stroke="#cfe6ff" stroke-width="0.7" stroke-linejoin="round"></polygon><polygon points="246.9,488.5 318.5,536.5 318.5,462.0 246.9,414.0" fill="#5aa2f0" stroke="#06285a" stroke-width="0.5" stroke-linejoin="round" opacity="0.88"></polygon><polygon points="496.6,351.2 578.0,405.7 496.6,460.2 415.2,405.7" fill="#0b3373" stroke="#cfe6ff" stroke-width="0.7" stroke-linejoin="round"></polygon><polygon points="415.2,490.3 496.6,544.8 496.6,460.2 415.2,405.7" fill="#092b5e" stroke="#cfe6ff" stroke-width="0.7" stroke-linejoin="round"></polygon><polygon points="578.0,490.3 496.6,544.8 496.6,460.2 578.0,405.7" fill="#07234f" stroke="#cfe6ff" stroke-width="0.7" stroke-linejoin="round"></polygon><polygon points="573.1,488.5 501.5,536.5 501.5,462.0 573.1,414.0" fill="#2f6fc4" stroke="#06285a" stroke-width="0.5" stroke-linejoin="round" opacity="0.8"></polygon><polygon points="410.0,409.2 491.4,463.7 410.0,518.2 328.6,463.7" fill="#0b3373" stroke="#cfe6ff" stroke-width="0.7" stroke-linejoin="round"></polygon><polygon points="328.6,548.3 410.0,602.8 410.0,518.2 328.6,463.7" fill="#092b5e" stroke="#cfe6ff" stroke-width="0.7" stroke-linejoin="round"></polygon><polygon points="491.4,548.3 410.0,602.8 410.0,518.2 491.4,463.7" fill="#07234f" stroke="#cfe6ff" stroke-width="0.7" stroke-linejoin="round"></polygon><polygon points="333.5,546.5 405.1,594.5 405.1,520.0 333.5,472.0" fill="#a9d3ff" stroke="#06285a" stroke-width="0.5" stroke-linejoin="round" opacity="0.88"></polygon><polygon points="486.5,546.5 414.9,594.5 414.9,520.0 486.5,472.0" fill="#2f6fc4" stroke="#06285a" stroke-width="0.5" stroke-linejoin="round" opacity="0.8"></polygon><polygon points="513.6,101.9 554.8,173.9 447.3,201.5 406.1,129.6" fill="#0b3373" stroke="#cfe6ff" stroke-width="0.7" stroke-linejoin="round"></polygon><polygon points="406.1,214.2 447.3,286.1 447.3,201.5 406.1,129.6" fill="#092b5e" stroke="#cfe6ff" stroke-width="0.7" stroke-linejoin="round"></polygon><polygon points="554.8,258.5 447.3,286.1 447.3,201.5 554.8,173.9" fill="#07234f" stroke="#cfe6ff" stroke-width="0.7" stroke-linejoin="round"></polygon><polygon points="509.6,107.9 545.9,171.2 451.3,195.6 415.0,132.2" fill="#a9d3ff" stroke="#06285a" stroke-width="0.5" stroke-linejoin="round" opacity="0.95"></polygon><polygon points="399.2,131.3 440.5,203.3 333.0,230.9 291.7,158.9" fill="#0b3373" stroke="#cfe6ff" stroke-width="0.7" stroke-linejoin="round"></polygon><polygon points="291.7,243.5 333.0,315.5 333.0,230.9 291.7,158.9" fill="#092b5e" stroke="#cfe6ff" stroke-width="0.7" stroke-linejoin="round"></polygon><polygon points="440.5,287.9 333.0,315.5 333.0,230.9 440.5,203.3" fill="#07234f" stroke="#cfe6ff" stroke-width="0.7" stroke-linejoin="round"></polygon><polygon points="395.2,137.3 431.6,200.6 337.0,225.0 300.7,161.6" fill="#2f6fc4" stroke="#06285a" stroke-width="0.5" stroke-linejoin="round" opacity="0.95"></polygon><polygon points="284.9,160.7 326.1,232.7 218.7,260.3 177.4,188.3" fill="#0b3373" stroke="#cfe6ff" stroke-width="0.7" stroke-linejoin="round"></polygon><polygon points="177.4,272.9 218.7,344.9 218.7,260.3 177.4,188.3" fill="#092b5e" stroke="#cfe6ff" stroke-width="0.7" stroke-linejoin="round"></polygon><polygon points="326.1,317.3 218.7,344.9 218.7,260.3 326.1,232.7" fill="#07234f" stroke="#cfe6ff" stroke-width="0.7" stroke-linejoin="round"></polygon><polygon points="280.9,166.7 317.2,230.0 222.6,254.3 186.3,191.0" fill="#a9d3ff" stroke="#06285a" stroke-width="0.5" stroke-linejoin="round" opacity="0.95"></polygon><polygon points="179.9,272.2 216.2,335.5 216.2,261.1 179.9,197.7" fill="#5aa2f0" stroke="#06285a" stroke-width="0.5" stroke-linejoin="round" opacity="0.88"></polygon><polygon points="557.4,178.5 598.7,250.5 491.2,278.1 450.0,206.1" fill="#0b3373" stroke="#cfe6ff" stroke-width="0.7" stroke-linejoin="round"></polygon><polygon points="450.0,290.7 491.2,362.7 491.2,278.1 450.0,206.1" fill="#092b5e" stroke="#cfe6ff" stroke-width="0.7" stroke-linejoin="round"></polygon><polygon points="598.7,335.1 491.2,362.7 491.2,278.1 598.7,250.5" fill="#07234f" stroke="#cfe6ff" stroke-width="0.7" stroke-linejoin="round"></polygon><polygon points="553.5,184.5 589.8,247.8 495.2,272.1 458.9,208.8" fill="#a9d3ff" stroke="#06285a" stroke-width="0.5" stroke-linejoin="round" opacity="0.95"></polygon><polygon points="443.1,207.9 484.4,279.9 376.9,307.5 335.6,235.5" fill="#0b3373" stroke="#cfe6ff" stroke-width="0.7" stroke-linejoin="round"></polygon><polygon points="335.6,320.1 376.9,392.1 376.9,307.5 335.6,235.5" fill="#092b5e" stroke="#cfe6ff" stroke-width="0.7" stroke-linejoin="round"></polygon><polygon points="484.4,364.5 376.9,392.1 376.9,307.5 484.4,279.9" fill="#07234f" stroke="#cfe6ff" stroke-width="0.7" stroke-linejoin="round"></polygon><polygon points="439.1,213.9 475.4,277.2 380.9,301.5 344.6,238.2" fill="#a9d3ff" stroke="#06285a" stroke-width="0.5" stroke-linejoin="round" opacity="0.95"></polygon><polygon points="328.8,237.3 370.0,309.3 262.6,336.9 221.3,264.9" fill="#0b3373" stroke="#cfe6ff" stroke-width="0.7" stroke-linejoin="round"></polygon><polygon points="221.3,349.5 262.6,421.5 262.6,336.9 221.3,264.9" fill="#092b5e" stroke="#cfe6ff" stroke-width="0.7" stroke-linejoin="round"></polygon><polygon points="370.0,393.9 262.6,421.5 262.6,336.9 370.0,309.3" fill="#07234f" stroke="#cfe6ff" stroke-width="0.7" stroke-linejoin="round"></polygon><polygon points="324.8,243.3 361.1,306.6 266.5,330.9 230.2,267.6" fill="#8fb0ff" stroke="#06285a" stroke-width="0.5" stroke-linejoin="round" opacity="0.95"></polygon><polygon points="223.8,348.8 260.1,412.1 260.1,337.7 223.8,274.3" fill="#a9d3ff" stroke="#06285a" stroke-width="0.5" stroke-linejoin="round" opacity="0.88"></polygon><polygon points="601.3,255.1 642.6,327.1 535.1,354.7 493.9,282.7" fill="#0b3373" stroke="#cfe6ff" stroke-width="0.7" stroke-linejoin="round"></polygon><polygon points="493.9,367.3 535.1,439.3 535.1,354.7 493.9,282.7" fill="#092b5e" stroke="#cfe6ff" stroke-width="0.7" stroke-linejoin="round"></polygon><polygon points="642.6,411.7 535.1,439.3 535.1,354.7 642.6,327.1" fill="#07234f" stroke="#cfe6ff" stroke-width="0.7" stroke-linejoin="round"></polygon><polygon points="597.4,261.1 633.7,324.4 539.1,348.7 502.8,285.4" fill="#8fb0ff" stroke="#06285a" stroke-width="0.5" stroke-linejoin="round" opacity="0.95"></polygon><polygon points="636.1,408.2 541.6,432.6 541.6,358.1 636.1,333.8" fill="#2f6fc4" stroke="#06285a" stroke-width="0.5" stroke-linejoin="round" opacity="0.8"></polygon><polygon points="487.0,284.5 528.3,356.5 420.8,384.1 379.5,312.1" fill="#0b3373" stroke="#cfe6ff" stroke-width="0.7" stroke-linejoin="round"></polygon><polygon points="379.5,396.7 420.8,468.7 420.8,384.1 379.5,312.1" fill="#092b5e" stroke="#cfe6ff" stroke-width="0.7" stroke-linejoin="round"></polygon><polygon points="528.3,441.1 420.8,468.7 420.8,384.1 528.3,356.5" fill="#07234f" stroke="#cfe6ff" stroke-width="0.7" stroke-linejoin="round"></polygon><polygon points="483.0,290.4 519.3,353.8 424.8,378.1 388.4,314.8" fill="#2f6fc4" stroke="#06285a" stroke-width="0.5" stroke-linejoin="round" opacity="0.95"></polygon><polygon points="521.8,437.6 427.2,461.9 427.2,387.5 521.8,363.2" fill="#a9d3ff" stroke="#06285a" stroke-width="0.5" stroke-linejoin="round" opacity="0.8"></polygon><polygon points="372.7,313.9 413.9,385.8 306.4,413.5 265.2,341.5" fill="#0b3373" stroke="#cfe6ff" stroke-width="0.7" stroke-linejoin="round"></polygon><polygon points="265.2,426.1 306.4,498.1 306.4,413.5 265.2,341.5" fill="#092b5e" stroke="#cfe6ff" stroke-width="0.7" stroke-linejoin="round"></polygon><polygon points="413.9,470.4 306.4,498.1 306.4,413.5 413.9,385.8" fill="#07234f" stroke="#cfe6ff" stroke-width="0.7" stroke-linejoin="round"></polygon><polygon points="368.7,319.8 405.0,383.2 310.4,407.5 274.1,344.2" fill="#a9d3ff" stroke="#06285a" stroke-width="0.5" stroke-linejoin="round" opacity="0.95"></polygon><polygon points="267.7,425.3 304.0,488.7 304.0,414.2 267.7,350.9" fill="#5aa2f0" stroke="#06285a" stroke-width="0.5" stroke-linejoin="round" opacity="0.88"></polygon><polygon points="407.5,467.0 312.9,491.3 312.9,416.9 407.5,392.6" fill="#2f6fc4" stroke="#06285a" stroke-width="0.5" stroke-linejoin="round" opacity="0.8"></polygon></g><g fill="none" stroke="#6ea6ee" stroke-width=".8"><line x1="146.2" y1="528" x2="93.50799999999998" y2="563.96"></line><line x1="406" y1="702" x2="353.308" y2="737.96"></line><line x1="96.50799999999998" y1="560.96" x2="356.308" y2="734.96"></line><line x1="90.50799999999998" y1="566.96" x2="102.50799999999998" y2="554.96"></line><line x1="350.308" y1="740.96" x2="362.308" y2="728.96"></line><text x="226.408" y="640.96" text-anchor="middle" font-family="IBM Plex Mono, ui-monospace, monospace" font-size="11" fill="#8db3e6" stroke="none" transform="rotate(33.8 226.4 648.0)">3 × 3 × 3</text><line x1="410" y1="254.99999999999994" x2="265.0763776654411" y2="46.8498471082799" stroke-dasharray="5 4"></line><line x1="410" y1="254.99999999999994" x2="404.0152468827816" y2="25.366697062461924"></line><path d="M278.0 65.4 L286.5 62.9 L295.2 60.5 L303.9 58.3 L312.8 56.2 L321.7 54.4 L330.7 52.7 L339.7 51.2 L348.9 49.9 L358.1 48.7 L367.3 47.8 L376.6 47.0 L385.9 46.5 L395.2 46.1 L404.5 45.9" marker-end="url(#ah)" stroke-width="1"></path><text x="315.2176359396645" y="-0.7546367431855856" font-family="IBM Plex Mono, ui-monospace, monospace" font-size="10.5" fill="#8db3e6" stroke="none" text-anchor="end">24°</text></g><g><text x="-12" y="176" font-family="IBM Plex Mono, ui-monospace, monospace" font-size="10.5" fill="#8db3e6" letter-spacing="1.4">LAYER 3</text><text x="-12" y="191" font-family="IBM Plex Mono, ui-monospace, monospace" font-size="10.5" fill="#d8e8ff" letter-spacing="1.4">ROTATED 24°</text><path d="M80 184 Q138 200 190.6 263.5" fill="none" stroke="#a9d3ff" stroke-width="1" marker-end="url(#ah)"></path><text x="712" y="232" font-family="IBM Plex Mono, ui-monospace, monospace" font-size="10.5" fill="#8db3e6" letter-spacing="1.4">LAYER 3</text><text x="712" y="262" font-family="Caveat, cursive" font-size="32" fill="#f2f7ff">Improve</text><text x="712" y="286" font-family="Caveat, cursive" font-size="21" fill="#d8e8ff">Scale &amp; Performance</text><text x="712" y="308" font-family="Caveat, cursive" font-size="21" fill="#d8e8ff">Maintain &amp; Operate</text><path d="M704 252 C652 252 642.4 377.9 597.4 377.9" fill="none" stroke="#a9d3ff" stroke-width="1" marker-end="url(#ah)"></path><text x="712" y="372" font-family="IBM Plex Mono, ui-monospace, monospace" font-size="10.5" fill="#8db3e6" letter-spacing="1.4">LAYER 2</text><text x="712" y="402" font-family="Caveat, cursive" font-size="32" fill="#f2f7ff">Build</text><text x="712" y="426" font-family="Caveat, cursive" font-size="21" fill="#d8e8ff">Clean Code + Testing</text><text x="712" y="448" font-family="Caveat, cursive" font-size="21" fill="#d8e8ff">Systems &amp; Integrations</text><path d="M704 392 C652 392 673.9 411.5 628.9 411.5" fill="none" stroke="#a9d3ff" stroke-width="1" marker-end="url(#ah)"></path><text x="712" y="512" font-family="IBM Plex Mono, ui-monospace, monospace" font-size="10.5" fill="#8db3e6" letter-spacing="1.4">LAYER 1</text><text x="712" y="542" font-family="Caveat, cursive" font-size="32" fill="#f2f7ff">Plan</text><text x="712" y="566" font-family="Caveat, cursive" font-size="21" fill="#d8e8ff">Ideas &amp; Requirements</text><text x="712" y="588" font-family="Caveat, cursive" font-size="21" fill="#d8e8ff">Architecture &amp; Design</text><path d="M704 532 C652 532 673.9 501.5 628.9 501.5" fill="none" stroke="#a9d3ff" stroke-width="1" marker-end="url(#ah)"></path></g></svg>